<?xml version="1.0" encoding="UTF-8" standalone="no"?>
<svg
   width="512"
   height="512"
   version="1.1"
   viewBox="0 0 512 512"
   xml:space="preserve"
   id="svg2"
   sodipodi:docname="icon-mask-circle.svg"
   inkscape:version="1.4.2 (ebf0e940d0, 2025-05-08)"
   inkscape:export-filename="icon-maskable.png"
   inkscape:export-xdpi="96"
   inkscape:export-ydpi="96"
   xmlns:inkscape="http://www.inkscape.org/namespaces/inkscape"
   xmlns:sodipodi="http://sodipodi.sourceforge.net/DTD/sodipodi-0.dtd"
   xmlns="http://www.w3.org/2000/svg"
   xmlns:svg="http://www.w3.org/2000/svg"><defs
     id="defs2" /><sodipodi:namedview
     id="namedview2"
     pagecolor="#ffffff"
     bordercolor="#000000"
     borderopacity="0.25"
     inkscape:showpageshadow="2"
     inkscape:pageopacity="0.0"
     inkscape:pagecheckerboard="0"
     inkscape:deskcolor="#d1d1d1"
     inkscape:zoom="1.1386719"
     inkscape:cx="225.70154"
     inkscape:cy="248.09605"
     inkscape:window-width="1536"
     inkscape:window-height="795"
     inkscape:window-x="0"
     inkscape:window-y="0"
     inkscape:window-maximized="1"
     inkscape:current-layer="svg2" /><g
     id="g2"
     transform="matrix(0.74614066,0,0,0.74614066,57.226954,76.987995)"><rect
       x="-76.697273"
       width="686.19769"
       height="686.19769"
       fill="#141414"
       id="rect1"
       y="-103.18161" /><path
       d="m 474.44,315.48 c -2.3833,-4.51 -3.6908,-9.5103 -3.8202,-14.61 -0.88934,-13.651 -1.9749,-14.945 -4.0195,-4.7222 -3.165,15.825 -11.027,28.131 -20.554,32.122 -3.7677,1.2534 -7.7027,1.932 -11.673,2.0129 -6.7541,0.17725 -7.7701,-0.18039 -12.882,-4.5291 -1.9339,-1.7991 -4.0562,-3.3845 -6.33,-4.7285 -1.899,0 -6.3743,-10.324 -6.3743,-14.803 -0.0845,-3.0981 -0.95583,-6.1238 -2.532,-8.7924 -3.2349,-4.9084 -3.2759,-11.261 -0.10428,-16.211 1.5323,-2.2266 2.509,-4.7879 2.8485,-7.4694 0.38296,-3.6999 1.0698,-4.5038 4.2886,-5.0387 3.6239,-0.59819 3.8961,-1.0824 5.4185,-9.495 0.36976,-4.4337 2.0104,-8.6668 4.7254,-12.192 2.3683,-1.9345 3.3028,-5.1265 2.3516,-8.0328 -0.69945,-4.3392 -1.0982,-4.7222 -4.9722,-4.7222 -7.9355,0.23025 -9.4038,-11.192 -1.668,-12.976 2.7329,-1.0065 4.8527,-3.2115 5.7508,-5.9819 1.899,-4.5988 1.861,-4.7 -1.6585,-7.2162 -6.3547,-4.0452 -11.033,-10.251 -13.173,-17.474 -3.9436,-16.366 5.0039,-30.181 21.601,-33.356 7.5264,-1.4338 7.7764,-1.6205 7.7764,-5.4976 0,-3.453 -0.54124,-4.1366 -3.8297,-4.7823 -6.118,-1.2122 -6.8965,-11.078 -1.016,-12.948 2.944,-1.3604 5.7081,-3.0805 8.229,-5.121 2.9656,-2.3114 6.342,-4.0404 9.9508,-5.0956 3.9626,-0.7501 4.3234,-1.1932 3.7062,-4.4025 -0.25444,-3.3982 0.67495,-6.7799 2.6301,-9.571 4.3265,-7.7891 3.0004,-10.359 -3.7157,-7.1592 -1.9,0.63769 -3.4783,1.988 -4.4025,3.7664 -0.84558,2.1683 -2.2029,4.1 -3.9562,5.6305 -3.6081,3.5986 -4.3994,3.8296 -10.793,3.1428 -8.2891,-0.89569 -10.226,0.59185 -8.229,6.3522 1.4021,4.086 -0.18995,10.593 -2.6016,10.593 -2.494,0 -4.1842,5.8584 -2.57,8.9316 1.8705,3.5258 0,5.0988 -5.9755,5.0988 -2.028,-0.0574 -4.0076,0.62433 -5.5704,1.918 -2.2377,2.6618 -2.9846,2.4276 -7.96,-2.5542 -4.2506,-4.2474 -4.5291,-4.3329 -14.094,-4.1398 -6.1401,0.1171 -10.334,-0.37664 -11.29,-1.3388 -1.3005,-1.0051 -2.9014,-1.5436 -4.5449,-1.5287 -2.4276,0 -2.8485,0.48741 -2.1997,2.532 0.92735,2.9561 -3.4815,10.808 -7.1751,12.806 -2.1952,0.85314 -4.5354,1.2713 -6.8902,1.2312 -5.7413,0 -12.119,-5.697 -12.119,-10.84 -0.24932,-2.5192 -1.1734,-4.9245 -2.6744,-6.963 -2.2629,-3.0511 -2.4655,-4.0544 -1.2312,-6.3078 1.9403,-3.2216 0.7439,-7.4129 -2.6048,-9.1247 -4.2063,-2.2377 -6.5737,-0.69947 -4.8076,3.1365 1.2815,2.0314 1.0332,4.6713 -0.60452,6.4281 -0.93877,1.6398 -2.5118,2.8202 -4.3487,3.2631 -2.1874,0.3691 -4.261,1.2353 -6.061,2.532 -3.9364,3.2416 -9.6259,3.211 -13.527,-0.0728 -2.8485,-2.0098 -5.3805,-2.532 -10.983,-2.2851 -7.0073,0.3165 -7.3998,0.14243 -11.153,-4.5323 -3.6999,-4.6082 -3.8898,-5.4216 -3.8898,-16.528 0,-10.081 0.40829,-12.397 3.0606,-17.031 7.5738,-13.223 23.855,-17.408 38.401,-9.8875 3.241,1.6743 4.0923,1.6173 9.0582,-0.633 6.2261,-2.5969 13.133,-3.0751 19.658,-1.3609 2.0021,0.75262 4.2596,0.04838 5.4786,-1.7091 2.4339,-2.2661 4.219,-2.6839 10.21,-2.3896 10.128,0.49374 15.037,-2.9023 18.99,-13.113 2.3722,-5.8034 5.9719,-11.025 10.552,-15.306 11.46,-11.587 16.433,-24.88 13.477,-36.087 -0.5846,-2.5822 -1.4122,-5.1033 -2.4718,-7.5295 -1.4924,1.0688 -2.6019,2.5889 -3.165,4.3361 -4.2942,7.0931 -10.258,13.028 -17.373,17.287 -5.4037,3.0385 -11.837,3.6634 -17.724,1.7218 -6.1781,-2.5731 -11.748,-0.81974 -20.041,6.3047 -3.3077,2.944 -7.0521,5.357 -11.1,7.1529 -7.3617,1.785 -15.121,0.83924 -21.838,-2.6618 -1.4057,-1.1307 -3.0015,-2.002 -4.7127,-2.5731 -2.532,0.11394 -10.612,8.6246 -12.533,13.211 -2.7114,7.0109 -7.6876,12.915 -14.138,16.774 -12.249,7.1972 -29.257,8.9949 -40.322,4.2664 -2.977,-1.5678 -6.3592,-2.1968 -9.7007,-1.8041 -4.4626,1.1204 -11.856,8.6215 -11.856,12.027 -1.2158,7.843 -4.2044,15.305 -8.7386,21.82 -2.2325,2.8915 -4.1428,6.0181 -5.697,9.3241 -2.532,5.9534 -6.2256,8.1056 -15.797,9.1785 -11.878,1.3135 -19.623,-1.5825 -24.934,-9.3083 -2.6238,-3.8296 -3.4815,-6.0452 -2.494,-6.387 1.551,-1.09 2.7649,-2.5934 3.5037,-4.3392 1.511,-2.4742 3.7369,-4.4319 6.3838,-5.6147 3.3074,-1.3451 4.393,-2.532 4.393,-4.8519 0,-6.1749 -1.016,-7.0263 -7.5137,-6.2983 -5.4945,0.61401 -6.5737,0.3165 -10.35,-3.0732 -3.1192,-2.1194 -4.7344,-5.8492 -4.1461,-9.5741 0.49644,-3.1706 -0.57888,-6.3847 -2.8833,-8.6183 l -2.9308,-2.8042 -1.4686,2.6839 c -1.2872,1.9288 -3.0469,3.4956 -5.1115,4.5513 -2.4911,1.2118 -4.1789,3.625 -4.4626,6.3806 -1.5719,4.5411 -3.9964,8.7403 -7.1434,12.372 -2.6932,2.9566 -4.8369,6.3703 -6.33,10.081 -0.70052,2.2931 -2.1322,4.2939 -4.0765,5.697 -4.4078,3.5248 -10.512,4.0255 -15.436,1.266 -2.6586,-1.1647 -2.9529,2.2756 -0.85771,9.9381 0.3013,2.9463 2.3533,5.4185 5.1938,6.2572 2.9066,1.1528 5.1552,3.5311 6.1433,6.4978 3.5954,8.1625 3.8202,9.3368 2.608,13.654 -1.4242,5.1052 -0.49691,7.3396 4.01,9.6691 4.5987,2.3769 4.5987,3.7347 0,8.3271 -4.632,4.5602 -11.908,5.0331 -17.091,1.1109 -1.1634,-1.036 -2.477,-1.8896 -3.8961,-2.532 -1.0803,1.5662 -1.7982,3.3534 -2.1016,5.2317 -0.81903,2.9885 -2.3503,5.734 -4.4627,8.0011 -4.4181,4.4129 -9.4965,8.1106 -15.053,10.96 -4.8076,1.7977 -15.584,-0.43677 -21.323,-4.4057 -1.8023,-1.408 -3.8377,-2.4889 -6.0135,-3.1935 -1.9917,-0.73313 -3.8129,-1.865 -5.352,-3.3264 -5.4501,-4.5703 -6.7098,-2.9245 -3.9278,5.1178 1.6949,3.4879 2.1083,7.461 1.1679,11.223 -1.5603,5.4913 -1.5129,10.884 0.0823,11.862 1.9205,0.34759 3.8983,0.19275 5.7413,-0.44943 5.9239,-1.9971 12.455,0.16599 16.015,5.3045 4.8994,7.8714 0.8229,17.287 -9.8875,22.832 -6.4376,3.3327 -7.4251,5.2412 -6.1591,12.002 0.67731,3.6049 1.4306,4.3297 5.2602,5.064 8.0359,1.5414 13.499,12.116 9.495,18.408 -0.76588,1.6706 -0.44709,3.6384 0.80708,4.9817 3.9056,5.9565 5.4501,16.588 4.0923,28.203 -1.5224,13.011 -4.6715,19.306 -12.625,25.124 -3.165,2.3389 -7.672,5.6305 -10.074,7.3903 -4.4834,3.3566 -10.42,4.0581 -15.562,1.8389 -2.0448,-1.1077 -2.4277,-0.92733 -2.4277,1.1204 0,7.1561 7.4852,19.902 18.268,31.14 6.2635,6.4946 7.7194,7.3998 12.097,7.3998 5.4944,0 15.562,5.8426 18.917,10.967 3.5037,5.3805 5.4723,14.559 5.7508,26.792 0.3165,13.78 -0.6868,15.762 -9.9792,19.74 -2.1589,0.61832 -4.0778,1.8803 -5.5008,3.6176 0,2.0889 22.589,7.1972 26.418,5.9628 4.328,-0.18 8.6612,0.19445 12.894,1.1141 13.653,2.506 26.385,8.6265 36.869,17.724 7.7036,7.0168 11.109,12.707 12.473,20.889 0.99696,5.8553 1.4179,6.3458 6.9282,7.9505 2.8865,0.86089 4.7158,0.39877 8.4094,-2.0952 4.3722,-2.5703 8.9934,-4.6912 13.793,-6.33 11.103,-3.8645 17.056,-3.2979 25.906,2.4592 7.6561,4.988 17.268,7.251 23.348,5.4786 3.241,-0.94948 4.9121,-2.6238 7.2795,-7.3333 7.1687,-14.208 19.623,-19.332 34.565,-14.242 8.4189,2.8706 15.986,8.3493 18.905,13.717 3.3517,6.1496 13.249,10.989 23.212,11.35 l 7.3934,0.2628 0.633,-7.6561 c 0.22141,-3.7215 1.0377,-7.3834 2.4181,-10.846 6.6102,-9.2938 14.421,-17.672 23.228,-24.918 9.1785,-7.2257 14.66,-9.533 22.589,-9.533 2.8303,0.0856 5.6604,-0.17968 8.4252,-0.79123 2.7377,-1.0698 2.532,-6.6085 -0.61084,-16.053 -3.0873,-7.5505 -2.428,-16.116 1.7787,-23.104 4.8127,-7.712 12.702,-12.989 21.668,-14.493 8.0359,-0.89888 11.571,-3.798 13.651,-11.277 2.4055,-7.9215 8.1343,-14.407 15.698,-17.771 4.3169,-2.2096 8.2738,-5.061 11.736,-8.4569 3.0092,-3.0764 6.4995,-5.642 10.334,-7.596 7.2795,-3.1872 14.559,-9.8273 14.559,-13.268 -0.52689,-3.1221 -1.6234,-6.1206 -3.2346,-8.8462 z m -234.05,121.6 c -55.926,-0.007 -106.34,-33.702 -127.74,-85.373 -21.396,-51.67 -9.5574,-111.14 29.992,-150.68 39.549,-39.543 99.022,-51.37 150.69,-29.966 51.667,21.404 85.353,71.826 85.351,127.75 -0.003,76.371 -61.92,138.28 -138.29,138.27 z"
       fill="#b94e45"
       stroke-width="3.165"
       id="path1" /><path
       d="m 240.41,425.41 c -69.919,0 -126.6,-56.681 -126.6,-126.6 0,-69.919 56.681,-126.6 126.6,-126.6 69.919,0 126.6,56.681 126.6,126.6 0,69.919 -56.681,126.6 -126.6,126.6 z m 49.648,-101.32 h 48.808 c 2.0743,-8.0974 3.2948,-16.537 3.2948,-25.281 0,-8.7582 -1.2242,-17.211 -3.3049,-25.32 h -48.8 c 0.66528,8.1822 1.223,16.648 1.223,25.32 0,8.6588 -0.55767,17.282 -1.2204,25.281 z m 38.545,25.32 h -41.767 c -3.0935,17.699 -7.4396,33.24 -13.57,45.692 23.886,-8.1005 43.376,-24.467 55.336,-45.692 z M 240.409,197.06 c -0.0177,0 -0.0348,0.003 -0.0525,0.003 -6.3762,0.10836 -15.481,20.663 -21.229,51.107 h 42.564 c -5.4862,-30.444 -14.853,-50.999 -20.756,-51.107 -0.17725,0 -0.34814,-0.003 -0.52603,-0.003 z m 24.609,76.43 h -49.217 c -0.61655,8.1094 -1.1337,16.562 -1.1337,25.32 0,8.7443 0.5045,17.183 1.1299,25.281 h 49.224 c 0.69946,-8.0974 1.1299,-16.537 1.1299,-25.281 0,-8.7576 -0.43171,-17.211 -1.1337,-25.32 z m -3.3188,75.921 h -42.579 c 5.6736,30.854 14.857,51.039 21.237,51.147 0.0177,0 0.0348,0.003 0.0525,0.003 0.17788,0 0.34878,-0.003 0.52602,-0.003 5.9066,-0.10814 15.278,-20.293 20.764,-51.147 z m -53.617,45.692 c -6.3237,-12.452 -11.006,-27.993 -14.1,-45.692 h -41.766 c 12.206,21.225 31.815,37.591 55.866,45.692 z m -66.128,-71.012 h 48.808 c -0.66276,-7.9993 -1.0153,-16.622 -1.0153,-25.281 0,-8.6721 0.35258,-17.138 1.0179,-25.32 h -48.8 c -2.0807,8.1094 -3.3049,16.562 -3.3049,25.32 0,8.7443 1.2204,17.183 3.2948,25.281 z m 10.286,-75.921 h 41.75 c 3.0941,-17.318 7.7726,-33.21 14.092,-45.584 -24.036,8.0271 -43.635,24.378 -55.842,45.584 z m 121.03,-45.584 c 6.0794,12.374 10.468,28.265 13.562,45.584 h 41.75 c -12.082,-21.206 -31.572,-37.557 -55.312,-45.584 z"
       clip-rule="evenodd"
       fill="#d66c63"
       fill-rule="evenodd"
       stroke-width="0.633"
       id="path2" /></g></svg>
