<?xml version="1.0" encoding="UTF-8" standalone="no"?>
<svg
   width="512"
   height="512"
   viewBox="0 0 512 512"
   version="1.1"
   sodipodi:docname="icon.svg"
   inkscape:version="1.4.2 (ebf0e940d0, 2025-05-08)"
   xml:space="preserve"
   xmlns:inkscape="http://www.inkscape.org/namespaces/inkscape"
   xmlns:sodipodi="http://sodipodi.sourceforge.net/DTD/sodipodi-0.dtd"
   xmlns="http://www.w3.org/2000/svg"
   xmlns:svg="http://www.w3.org/2000/svg"
   ><sodipodi:namedview
     id="namedview1"
     pagecolor="#ffffff"
     bordercolor="#000000"
     borderopacity="0.25"
     inkscape:showpageshadow="2"
     inkscape:pageopacity="0.0"
     inkscape:pagecheckerboard="true"
     inkscape:deskcolor="#d1d1d1"
     inkscape:zoom="0.84738256"
     inkscape:cx="247.82195"
     inkscape:cy="241.33138"
     inkscape:window-width="1536"
     inkscape:window-height="795"
     inkscape:window-x="0"
     inkscape:window-y="0"
     inkscape:window-maximized="1"
     /><rect
     style="opacity:1;fill:#141414;fill-opacity:1"
     id="rect1"
     width="512"
     height="512"
     x="2.360209"
     y="0"
     ry="81.427216" /><path
     d="m 474.44286,315.48262 c -2.38327,-4.51002 -3.69076,-9.51029 -3.82016,-14.60964 -0.88934,-13.65064 -1.97493,-14.94513 -4.01954,-4.72218 -3.165,15.82499 -11.02685,28.13052 -20.5535,32.12158 -3.76766,1.25344 -7.70266,1.93204 -11.67253,2.01294 -6.7541,0.17725 -7.77006,-0.18039 -12.88155,-4.52911 -1.9339,-1.79912 -4.05615,-3.38446 -6.32998,-4.72852 -1.89903,0 -6.37433,-10.32422 -6.37433,-14.8027 -0.0845,-3.09812 -0.95583,-6.12381 -2.532,-8.79237 -3.23492,-4.9084 -3.27587,-11.26147 -0.10428,-16.21114 1.53227,-2.22664 2.50899,-4.78788 2.8485,-7.46939 0.38296,-3.69988 1.06978,-4.5038 4.28856,-5.03868 3.62394,-0.59819 3.89614,-1.08244 5.4185,-9.49501 0.36976,-4.43374 2.01043,-8.66677 4.72535,-12.19158 2.36833,-1.93446 3.30278,-5.1265 2.35157,-8.03277 -0.69945,-4.3392 -1.09823,-4.72217 -4.9722,-4.72217 -7.93553,0.23025 -9.40377,-11.19243 -1.66796,-12.9765 2.7329,-1.00649 4.85271,-3.21147 5.75082,-5.98186 1.89899,-4.59875 1.86099,-4.70002 -1.65847,-7.2162 -6.35473,-4.04525 -11.03308,-10.25119 -13.17275,-17.47396 -3.94359,-16.36622 5.00387,-30.18145 21.60114,-33.35594 7.52636,-1.43375 7.77642,-1.62049 7.77642,-5.49761 0,-3.453 -0.54124,-4.13665 -3.82966,-4.7823 -6.11795,-1.2122 -6.89653,-11.0775 -1.01596,-12.94803 2.94403,-1.36042 5.70814,-3.08051 8.22898,-5.12097 2.96555,-2.31144 6.34195,-4.04045 9.95078,-5.09565 3.96258,-0.7501 4.32337,-1.1932 3.70621,-4.40252 -0.25444,-3.39825 0.67495,-6.77987 2.63013,-9.57095 4.32654,-7.78907 3.00039,-10.35904 -3.71572,-7.15922 -1.90001,0.63769 -3.47833,1.98796 -4.40253,3.76635 -0.84558,2.16831 -2.20288,4.10005 -3.95623,5.63053 -3.60813,3.59861 -4.39936,3.82965 -10.79268,3.14284 -8.28914,-0.89569 -10.22608,0.59185 -8.22898,6.35216 1.4021,4.08601 -0.18995,10.59325 -2.60162,10.59325 -2.49405,0 -4.18415,5.85842 -2.56999,8.93163 1.87049,3.52582 0,5.09881 -5.97552,5.09881 -2.02795,-0.0574 -4.00764,0.62433 -5.57039,1.91799 -2.23767,2.66177 -2.98462,2.42757 -7.95998,-2.55415 -4.25061,-4.24743 -4.52912,-4.33288 -14.09377,-4.13981 -6.14009,0.1171 -10.3337,-0.37664 -11.28954,-1.3388 -1.30054,-1.00513 -2.90135,-1.54357 -4.54493,-1.5287 -2.42755,0 -2.84851,0.48741 -2.19968,2.532 0.92735,2.9561 -3.48152,10.80848 -7.17506,12.80558 -2.19521,0.85314 -4.53538,1.2713 -6.89021,1.2312 -5.74132,0 -12.11878,-5.697 -12.11878,-10.84012 -0.24932,-2.51918 -1.17338,-4.92454 -2.67444,-6.96301 -2.26294,-3.05106 -2.46552,-4.05437 -1.23116,-6.30785 1.94034,-3.22165 0.7439,-7.41287 -2.60481,-9.12468 -4.20629,-2.23766 -6.57372,-0.69947 -4.80762,3.1365 1.28151,2.0314 1.03322,4.67127 -0.60452,6.42812 -0.93877,1.63983 -2.51185,2.82023 -4.34872,3.26312 -2.18745,0.3691 -4.261,1.23534 -6.06097,2.53199 -3.93644,3.24157 -9.62591,3.21096 -13.52721,-0.0728 -2.84849,-2.00979 -5.38049,-2.53201 -10.98256,-2.28514 -7.00731,0.3165 -7.39977,0.14243 -11.15345,-4.53228 -3.69989,-4.60824 -3.8898,-5.42164 -3.8898,-16.52762 0,-10.08054 0.40829,-12.39732 3.06056,-17.03087 7.57385,-13.223376 23.85461,-17.407508 38.40095,-9.887466 3.24096,1.674285 4.09234,1.617315 9.05822,-0.633001 6.22609,-2.596914 13.13327,-3.075106 19.65784,-1.360947 2.00208,0.752623 4.25959,0.04838 5.47859,-1.709102 2.43391,-2.266138 4.21896,-2.683921 10.2103,-2.389577 10.128,0.493742 15.03692,-2.902303 18.99001,-13.112592 2.37215,-5.803397 5.97186,-11.024831 10.55212,-15.305943 11.46046,-11.587066 16.43267,-24.880066 13.47654,-36.087332 -0.5846,-2.582195 -1.41223,-5.103278 -2.47184,-7.529535 -1.49245,1.068816 -2.60194,2.588864 -3.165,4.336051 -4.29421,7.093133 -10.25847,13.028051 -17.37268,17.28723 -5.40374,3.038518 -11.83652,3.663415 -17.72403,1.721761 -6.17808,-2.573146 -11.74847,-0.819736 -20.04075,6.30468 -3.3077,2.944005 -7.05209,5.357003 -11.09968,7.1529 -7.36174,1.784978 -15.12102,0.839242 -21.83848,-2.661766 -1.40569,-1.130718 -3.00146,-2.00204 -4.71269,-2.573144 -2.532,0.113941 -10.61225,8.624625 -12.5334,13.210711 -2.71143,7.010937 -7.68755,12.914982 -14.13806,16.7745 -12.24856,7.197211 -29.25727,8.99493 -40.3221,4.266422 -2.97698,-1.567804 -6.35915,-2.196789 -9.70074,-1.804051 -4.46265,1.120409 -11.85609,8.62146 -11.85609,12.026999 -1.21579,7.843031 -4.20444,15.305442 -8.73856,21.819512 -2.23253,2.89154 -4.14283,6.01808 -5.697,9.32409 -2.53199,5.95336 -6.22556,8.10557 -15.79652,9.1785 -11.87825,1.31348 -19.623,-1.5825 -24.93386,-9.30826 -2.62379,-3.82965 -3.48151,-6.04515 -2.49403,-6.38698 1.55097,-1.09001 2.76487,-2.59341 3.50366,-4.33921 1.51104,-2.4742 3.73694,-4.43193 6.3838,-5.61471 3.30742,-1.34512 4.39302,-2.532 4.39302,-4.851947 0,-6.174914 -1.01597,-7.026298 -7.5137,-6.298349 -5.49446,0.614009 -6.57371,0.316504 -10.34957,-3.073213 -3.11915,-2.119448 -4.73435,-5.849172 -4.14613,-9.574128 0.49644,-3.170616 -0.57888,-6.384735 -2.88332,-8.618295 l -2.93079,-2.804189 -1.46856,2.683918 c -1.28715,1.928755 -3.04689,3.495646 -5.11149,4.551272 -2.49109,1.211766 -4.17893,3.625015 -4.46264,6.380639 -1.57188,4.541113 -3.99643,8.740306 -7.14341,12.371986 -2.69323,2.956582 -4.83687,6.370336 -6.33,10.080526 -0.70052,2.29308 -2.13223,4.2939 -4.07651,5.697 -4.40782,3.52478 -10.51248,4.02546 -15.43572,1.26601 -2.65859,-1.16473 -2.95294,2.27562 -0.85771,9.9381 0.3013,2.94634 2.35329,5.41847 5.19377,6.25719 2.90661,1.15276 5.1552,3.5311 6.14326,6.49775 3.59544,8.16254 3.82016,9.33675 2.60797,13.65381 -1.42425,5.10515 -0.49691,7.33964 4.01005,9.66907 4.59874,2.37692 4.59874,3.73471 0,8.32712 -4.63197,4.56021 -11.90768,5.03312 -17.09101,1.11092 -1.16335,-1.03596 -2.47697,-1.88964 -3.89611,-2.532 -1.0803,1.56622 -1.7982,3.35341 -2.10156,5.23174 -0.81903,2.98852 -2.3503,5.73395 -4.46266,8.00111 -4.418073,4.41286 -9.49652,8.11064 -15.052731,10.96041 -4.807634,1.79772 -15.584461,-0.43677 -21.322606,-4.40568 -1.802311,-1.408 -3.837662,-2.48887 -6.0135,-3.19348 -1.991745,-0.73313 -3.812913,-1.86502 -5.352016,-3.32642 -5.45013,-4.57026 -6.709799,-2.92446 -3.927765,5.1178 1.694869,3.48788 2.10831,7.46097 1.167886,11.2231 -1.560345,5.49127 -1.512873,10.88442 0.0823,11.86241 1.920515,0.34759 3.898273,0.19275 5.741312,-0.44943 5.923921,-1.99714 12.454512,0.16599 16.014899,5.30454 4.899419,7.87136 0.8229,17.28723 -9.887462,22.83232 -6.437607,3.33274 -7.42509,5.24124 -6.159087,12.00167 0.67731,3.60494 1.430578,4.32972 5.260228,5.06401 8.035936,1.54135 13.498725,12.11561 9.495002,18.40764 -0.765879,1.67061 -0.44709,3.63835 0.807075,4.9817 3.905609,5.95653 5.450131,16.58777 4.092344,28.20332 -1.522364,13.01131 -4.671539,19.3065 -12.625186,25.12378 -3.165,2.33893 -7.671959,5.63053 -10.074193,7.39026 -4.483446,3.35658 -10.420025,4.05806 -15.562309,1.83887 -2.044763,-1.10774 -2.427727,-0.92733 -2.427727,1.12043 0,7.15606 7.485224,19.90152 18.268383,31.14043 6.263532,6.49458 7.719435,7.39978 12.096629,7.39978 5.494439,0 15.562305,5.84259 18.917205,10.96671 3.503657,5.3805 5.472287,14.55903 5.750806,26.79172 0.316504,13.78044 -0.686804,15.76172 -9.979246,19.74013 -2.158855,0.61832 -4.077805,1.88032 -5.50077,3.6176 0,2.08888 22.58861,7.19719 26.418259,5.96284 4.32799,-0.18 8.66124,0.19445 12.89421,1.11409 13.6531,2.50604 26.38469,8.62649 36.86909,17.72399 7.70361,7.0168 11.10915,12.70749 12.47327,20.889 0.99696,5.85526 1.41791,6.34584 6.92819,7.9505 2.88647,0.86089 4.71585,0.39877 8.4094,-2.09524 4.37216,-2.57034 8.99344,-4.69115 13.79307,-6.33001 11.10282,-3.86446 17.05619,-3.29791 25.90553,2.45923 7.65613,4.98801 17.26823,7.251 23.3482,5.47858 3.24096,-0.94948 4.91208,-2.62376 7.2795,-7.3333 7.16873,-14.20766 19.623,-19.33179 34.56496,-14.24249 8.41891,2.87065 15.98642,8.34928 18.90456,13.7171 3.35171,6.14959 13.24869,10.98889 23.21212,11.3497 l 7.39343,0.2628 0.633,-7.65613 c 0.22141,-3.72146 1.03772,-7.38339 2.41807,-10.84645 6.61016,-9.29381 14.42053,-17.67247 23.22794,-24.91804 9.17847,-7.22572 14.66027,-9.53302 22.58859,-9.53302 2.83032,0.0856 5.66037,-0.17968 8.42522,-0.79123 2.73773,-1.06977 2.532,-6.60852 -0.61084,-16.05288 -3.08732,-7.55054 -2.42796,-16.11552 1.77873,-23.10449 4.8127,-7.71197 12.70233,-12.98902 21.66759,-14.49254 8.03594,-0.89888 11.57123,-3.79802 13.65064,-11.2769 2.40549,-7.92149 8.13429,-14.40686 15.6984,-17.77149 4.31689,-2.20964 8.27377,-5.06099 11.73583,-8.45687 3.0092,-3.07642 6.4995,-5.64203 10.33374,-7.596 7.27949,-3.18716 14.55898,-9.82733 14.55898,-13.26768 -0.52689,-3.12206 -1.62336,-6.12063 -3.23463,-8.84618 z M 240.38794,437.07875 c -55.92637,-0.007 -106.34355,-33.70231 -127.7394,-85.3727 -21.395826,-51.67029 -9.55738,-111.13993 29.99153,-150.68249 39.54892,-39.54259 99.02198,-51.37033 150.68883,-29.96623 51.66693,21.40414 85.35311,71.8257 85.35057,127.75207 -0.003,76.37127 -61.92028,138.2781 -138.29153,138.26935 z"
     style="opacity:1;fill:#b94e45;fill-opacity:1;stroke-width:3.165"
     sodipodi:nodetypes="ccsccccccccccccccccccscccccccccccscccccccccccccccccccccscccccccccccccccccccccccccccccsccccccccccccccccscccccccccccccccccccccccscsccccccccccccccccccccccccccccccccssssss" /><path
     fill-rule="evenodd"
     clip-rule="evenodd"
     d="m 240.40662,425.40625 c -69.91883,0 -126.59969,-56.68086 -126.59969,-126.60034 0,-69.91881 56.68086,-126.59968 126.59969,-126.59968 69.91946,0 126.60035,56.68087 126.60035,126.59968 0,69.91948 -56.68089,126.60034 -126.60035,126.60034 z m 49.64822,-101.3195 h 48.80761 c 2.07434,-8.09737 3.29477,-16.53655 3.29477,-25.28084 0,-8.75819 -1.22421,-17.21067 -3.30488,-25.32006 h -48.80003 c 0.66528,8.18219 1.22295,16.64795 1.22295,25.32006 0,8.65884 -0.55767,17.28158 -1.22042,25.28084 z m 38.5454,25.32007 h -41.76676 c -3.09348,17.69934 -7.43964,33.24018 -13.56964,45.69194 23.8857,-8.10054 43.3758,-24.46674 55.3364,-45.69194 z M 240.40662,197.05595 c -0.0177,0 -0.0348,0.003 -0.0525,0.003 -6.37622,0.10836 -15.48068,20.66307 -21.22897,51.10728 h 42.56366 c -5.48622,-30.44421 -14.85274,-50.99904 -20.75612,-51.10728 -0.17725,0 -0.34814,-0.003 -0.52603,-0.003 z m 24.60857,76.4299 h -49.21651 c -0.61655,8.10939 -1.1337,16.5625 -1.1337,25.32006 0,8.74429 0.5045,17.18347 1.1299,25.28084 h 49.22411 c 0.69946,-8.09737 1.1299,-16.53655 1.1299,-25.28084 0,-8.75756 -0.43171,-17.21067 -1.1337,-25.32006 z m -3.31882,75.92097 h -42.57886 c 5.6736,30.8544 14.85718,51.03895 21.23657,51.14717 0.0177,0 0.0348,0.003 0.0525,0.003 0.17788,0 0.34878,-0.003 0.52602,-0.003 5.90655,-0.10814 15.27814,-20.29277 20.76372,-51.14717 z m -53.61651,45.69194 c -6.32369,-12.45176 -11.00601,-27.9926 -14.10012,-45.69194 h -41.76607 c 12.20554,21.2252 31.81466,37.5914 55.86619,45.69194 z m -66.12841,-71.01201 h 48.80759 c -0.66276,-7.99926 -1.01534,-16.622 -1.01534,-25.28084 0,-8.67211 0.35258,-17.13787 1.01787,-25.32006 h -48.8 c -2.08067,8.10939 -3.3049,16.56187 -3.3049,25.32006 0,8.74429 1.22043,17.18347 3.29478,25.28084 z m 10.28627,-75.92098 h 41.75025 c 3.09412,-17.31827 7.77263,-33.20979 14.09189,-45.58369 -24.03633,8.02709 -43.6347,24.37814 -55.84214,45.58369 z m 121.02612,-45.58369 c 6.07935,12.3739 10.46794,28.26542 13.56204,45.58369 h 41.75029 c -12.08212,-21.20555 -31.57224,-37.5566 -55.31233,-45.58369 z"
     fill="#666666"
     id="path1"
     style="fill:#d66c63;fill-opacity:1;stroke-width:0.633004" /></svg>
